<mxfile host="app.diagrams.net" modified="2024-07-06T11:22:06.295Z" agent="Mozilla/5.0 (Windows NT 10.0; Win64; x64) AppleWebKit/537.36 (KHTML, like Gecko) Chrome/126.0.0.0 Safari/537.36" version="24.6.4" etag="zUX563IsTR2hw6Raevz-" type="github">
  <diagram name="Page-1" id="bLU50sTdWVesT-SnSgki">
    <mxGraphModel>
      <root>
        <mxCell id="0" />
        <mxCell id="1" parent="0" />
      </root>
    </mxGraphModel>
  </diagram>
</mxfile>
